<?xml version="1.0" standalone="no"?>
<!DOCTYPE svg PUBLIC "-//W3C//DTD SVG 20010904//EN"
 "http://www.w3.org/TR/2001/REC-SVG-20010904/DTD/svg10.dtd">
<svg version="1.0" xmlns="http://www.w3.org/2000/svg"
 width="225.000000pt" height="225.000000pt" viewBox="0 0 225.000000 225.000000"
 preserveAspectRatio="xMidYMid meet">
<metadata>
Created by potrace 1.14, written by Peter Selinger 2001-2017
</metadata>
<g transform="translate(0.000000,225.000000) scale(0.100000,-0.100000)"
fill="#000000" stroke="none">
<path d="M412 2240 c-18 -4 -42 -16 -53 -26 -51 -46 -49 -1 -49 -1089 0 -1119
-4 -1049 62 -1097 l33 -23 720 0 720 0 33 23 c66 48 62 -22 62 1099 0 991 -1
1019 -20 1050 -44 72 5 68 -775 70 -385 1 -715 -2 -733 -7z m1248 -345 l0
-135 -535 0 -535 0 0 135 0 135 535 0 535 0 0 -135z m143 -301 l77 -7 0 -729
0 -730 -29 -29 -29 -29 -699 0 c-533 1 -702 4 -714 13 -39 30 -39 35 -39 780
0 398 3 727 7 730 8 9 1325 9 1426 1z"/>
<path d="M542 1497 c-19 -20 -22 -35 -22 -106 0 -74 2 -84 25 -106 22 -23 32
-25 110 -25 117 0 125 9 125 130 0 122 -8 130 -128 130 -80 0 -91 -2 -110 -23z"/>
<path d="M862 1504 c-20 -14 -22 -23 -22 -110 0 -126 7 -134 125 -134 78 0 88
2 110 25 22 21 25 33 25 103 0 65 -4 84 -21 106 -19 25 -25 26 -108 26 -62 0
-93 -4 -109 -16z"/>
<path d="M1171 1494 c-17 -22 -21 -41 -21 -106 0 -70 3 -82 25 -103 22 -23 32
-25 110 -25 118 0 125 8 125 134 0 120 -6 126 -131 126 -83 0 -89 -1 -108 -26z"/>
<path d="M1490 1500 c-17 -17 -20 -33 -20 -110 0 -121 8 -130 125 -130 78 0
88 2 110 25 23 22 25 32 25 108 0 74 -3 86 -23 105 -20 19 -35 22 -110 22 -74
0 -90 -3 -107 -20z"/>
<path d="M540 1150 c-17 -17 -20 -33 -20 -105 0 -78 2 -88 25 -110 21 -22 33
-25 103 -25 65 0 84 4 106 21 25 19 26 25 26 110 0 121 -8 129 -130 129 -77 0
-93 -3 -110 -20z"/>
<path d="M857 1152 c-13 -14 -17 -39 -17 -108 0 -124 4 -128 119 -132 85 -4
91 -3 115 22 23 22 26 33 26 101 0 73 -10 112 -34 127 -6 4 -52 8 -102 8 -75
0 -94 -3 -107 -18z"/>
<path d="M1184 1162 c-24 -15 -34 -54 -34 -127 0 -68 3 -79 26 -101 24 -25 30
-26 115 -22 115 4 119 8 119 133 0 120 -5 125 -126 125 -49 0 -94 -4 -100 -8z"/>
<path d="M1490 1150 c-17 -17 -20 -33 -20 -109 0 -85 1 -91 26 -110 22 -17 41
-21 106 -21 70 0 82 3 103 25 23 22 25 32 25 110 0 117 -9 125 -130 125 -77 0
-93 -3 -110 -20z"/>
<path d="M540 800 c-17 -17 -20 -33 -20 -104 0 -121 10 -131 128 -131 125 0
132 7 132 130 0 121 -4 125 -128 125 -79 0 -95 -3 -112 -20z"/>
<path d="M857 802 c-13 -14 -17 -39 -17 -109 0 -120 8 -128 131 -128 119 0
124 5 124 131 0 121 -3 124 -130 124 -76 0 -95 -3 -108 -18z"/>
<path d="M1174 806 c-16 -13 -19 -27 -19 -110 0 -126 5 -131 124 -131 123 0
131 8 131 130 0 120 -5 125 -126 125 -62 0 -96 -4 -110 -14z"/>
<path d="M1487 802 c-15 -16 -17 -51 -17 -284 0 -318 -9 -298 128 -298 140 0
132 -17 132 300 0 318 8 300 -133 300 -78 0 -97 -3 -110 -18z"/>
<path d="M536 448 c-22 -31 -22 -175 0 -206 14 -20 23 -22 113 -22 127 0 131
4 131 127 0 119 -4 123 -133 123 -88 0 -97 -2 -111 -22z"/>
<path d="M857 452 c-13 -14 -17 -39 -17 -109 0 -118 5 -123 126 -123 125 0
129 3 129 123 0 126 -1 127 -125 127 -81 0 -100 -3 -113 -18z"/>
<path d="M1169 453 c-10 -11 -14 -45 -14 -110 0 -120 3 -123 130 -123 120 0
125 5 125 127 0 119 -4 123 -132 123 -77 0 -98 -3 -109 -17z"/>
</g>
</svg>
